<svg xmlns="http://www.w3.org/2000/svg" x="0px" y="0px"
width="100" height="100"
viewBox="0 0 172 172"
style=" fill:#000000;"><g fill="none" fill-rule="nonzero" stroke="none" stroke-width="1" stroke-linecap="butt" stroke-linejoin="miter" stroke-miterlimit="10" stroke-dasharray="" stroke-dashoffset="0" font-family="none" font-weight="none" font-size="none" text-anchor="none" style="mix-blend-mode: normal"><path d="M0,172v-172h172v172z" fill="none"></path><g><path d="M104.46313,128.6775c-11.72825,-5.56312 -25.33237,-5.56312 -37.06062,0l-13.6525,-13.51813c9.75562,-5.83456 20.88187,-8.987 32.25,-9.1375c11.36544,0.14244 22.49169,3.28413 32.25,9.11062z" fill="#bbdef9"></path><path d="M86,106.04875c-0.61813,0 -1.20937,0 -1.80063,0l-18.24812,21.1775l1.45125,1.45125c11.72825,-5.56312 25.33238,-5.56312 37.06063,0l13.78688,-13.4375c-9.75294,-5.85338 -20.8765,-9.02463 -32.25,-9.19125zM75.25,107.01625c-7.62713,1.40287 -14.95056,4.13069 -21.63437,8.0625l7.87437,7.82063z" fill="#def0ff"></path><path d="M141.60438,90.97188l-8.0625,10.75c-0.92181,0.98094 -2.42413,1.13144 -3.52063,0.34938c-26.617,-17.80737 -61.34487,-17.80737 -87.96187,0c-1.0965,0.78206 -2.59881,0.63156 -3.52063,-0.34938l-8.0625,-10.75c-0.63425,-0.58319 -0.97019,-1.42437 -0.91375,-2.28437c0.0645,-0.83044 0.51062,-1.58563 1.20937,-2.0425c16.28087,-11.15581 35.49381,-17.25375 55.22813,-17.5225c19.73431,0.26875 38.94725,6.36669 55.22813,17.5225c0.69875,0.45687 1.14487,1.21206 1.20937,2.0425c0.08062,0.84925 -0.22575,1.68775 -0.83312,2.28437z" fill="#bbdef9"></path><path d="M129.99438,102.125c1.0965,0.78206 2.59881,0.63156 3.52062,-0.34938l8.0625,-10.75c0.63156,-0.60737 0.94869,-1.46737 0.86,-2.33812c-0.0645,-0.83044 -0.51063,-1.58563 -1.20937,-2.0425c-8.79081,-5.93938 -18.43087,-10.50544 -28.595,-13.545l-14.32438,16.63562c11.34125,1.763 22.15575,5.99312 31.68563,12.38938zM96.75,69.3375l-18.8125,20.3175c3.90225,-0.61544 4.11187,-0.93794 8.0625,-0.9675c1.63938,0 3.30562,0 4.91812,0.18812l15.10375,-17.54937c-4.71656,-1.03469 -4.45319,-1.6985 -9.27187,-1.98875zM83.7425,69.20313c-2.93744,0 -5.805,0.20694 -8.6,0.61813l-22.76312,26.445c3.83237,-1.79794 7.8045,-3.27875 11.87875,-4.43437z" fill="#def0ff"></path><path d="M168.47938,64.285l-8.0625,10.75c-0.91644,0.9675 -2.40263,1.11531 -3.49375,0.34937c-10.6425,-7.4175 -39.0225,-24.32188 -70.78875,-24.32188c-31.76625,0 -60.14625,16.8775 -70.89625,24.1875c-1.09112,0.76594 -2.57731,0.61813 -3.49375,-0.34937l-8.0625,-10.75c-1.09919,-0.99706 -1.17981,-2.69825 -0.18275,-3.79744c0.13437,-0.14781 0.28488,-0.28219 0.4515,-0.39506c23.41619,-18.48463 52.40625,-28.4875 82.2375,-28.38c38.3775,0 70.17062,19.91438 82.04938,28.4875c0.66112,0.46762 1.075,1.20937 1.12875,2.01563c0.06181,0.83312 -0.26606,1.64744 -0.88688,2.20375z" fill="#bbdef9"></path><path d="M125.10313,58.64125c11.2445,4.29194 21.95688,9.86581 31.9275,16.60875c1.09113,0.76594 2.57731,0.61813 3.49375,-0.34937l8.0625,-10.75c0.59125,-0.57244 0.88956,-1.38406 0.80625,-2.20375c-0.05375,-0.80625 -0.46762,-1.548 -1.12875,-2.01562c-9.31219,-6.64619 -19.29087,-12.30337 -29.7775,-16.8775zM107.00281,54.24719c4.44244,0.89762 7.57875,0.79819 11.89219,2.19031l13.4375,-15.72187c-3.95063,-1.53187 -1.58562,-2.95625 -6.02,-4.21937zM91.375,51.0625c2.50744,0.14244 4.99069,0.37625 7.44438,0.69875l14.64688,-17.01188c-2.23869,-0.51869 -4.52306,-0.98631 -6.85312,-1.3975z" fill="#def0ff"></path><path d="M86,142.4375c-2.96853,0 -5.375,2.40647 -5.375,5.375c0,2.96853 2.40647,5.375 5.375,5.375c2.96853,0 5.375,-2.40647 5.375,-5.375c0,-2.96853 -2.40647,-5.375 -5.375,-5.375z" fill="#ed7899"></path><path d="M117.94094,111.671c-0.31713,-0.3225 -0.67456,-0.60469 -1.06156,-0.8385c-9.34712,-5.57119 -20.00037,-8.57313 -30.87937,-8.7075c-8.47638,0.09406 -16.80494,1.9565 -24.49388,5.39919c-0.11019,1.10187 -0.42194,2.193 -0.97825,3.20081c-1.75225,3.17931 -3.83237,6.15706 -5.73512,9.23963l11.18269,11.13163c1.01319,0.989 2.37306,1.53994 3.78938,1.53187c0.81969,0.00269 1.62862,-0.18006 2.365,-0.5375c8.7505,-4.10919 18.877,-4.10919 27.6275,0c2.04788,0.99975 4.50156,0.602 6.1275,-0.99437l11.98625,-11.825c2.12044,-2.08013 2.15,-5.4825 0.06987,-7.60025zM102.125,127.22625c-10.20444,-4.84019 -22.04556,-4.84019 -32.25,0l-12.01312,-11.66375c8.50325,-5.12775 18.2105,-7.90931 28.13812,-8.0625c9.91687,0.15587 19.61875,2.94013 28.11125,8.0625z" fill="#8d6c9f"></path><path d="M141.5775,82.13c-16.383,-11.22837 -35.71956,-17.36125 -55.5775,-17.63c-19.85525,0.26337 -39.19181,6.3855 -55.5775,17.60313c-3.67112,2.51819 -4.60637,7.53575 -2.08819,11.20956c0.28487,0.41388 0.60469,0.80088 0.95944,1.15294l7.68625,7.65937c2.71438,2.69019 6.94719,3.10675 10.13188,0.99437c23.52369,-15.74875 54.22569,-15.74875 77.74937,0c1.32225,0.87613 2.87562,1.34375 4.46125,1.34375c2.13387,0.00538 4.18175,-0.83581 5.6975,-2.33812l7.68625,-7.71312c3.14706,-3.14975 3.14437,-8.256 -0.00806,-11.40306c-0.344,-0.344 -0.72025,-0.65575 -1.12069,-0.93256zM138.89,90.67625l-7.65937,7.68625c-0.89763,0.89225 -2.29781,1.04006 -3.35938,0.34938c-25.32969,-16.95544 -58.38594,-16.95544 -83.71562,0c-1.06156,0.69069 -2.46175,0.54287 -3.35937,-0.34938l-7.71313,-7.71312c-0.57512,-0.56975 -0.86,-1.37062 -0.77937,-2.17687c0.08331,-0.78206 0.50525,-1.49156 1.15563,-1.935c15.49075,-10.60756 33.76844,-16.4045 52.54063,-16.6625c18.78563,0.26069 37.07406,6.06569 52.5675,16.68937c0.65037,0.44344 1.07231,1.15294 1.15563,1.935c0.07525,0.80894 -0.22306,1.60981 -0.80625,2.17688z" fill="#8d6c9f"></path><path d="M168.6675,55.47c-11.90562,-8.6 -43.80625,-28.595 -82.6675,-28.595c-30.03012,-0.07525 -59.20562,10.01094 -82.775,28.62187c-3.51525,2.73319 -4.1495,7.79913 -1.41631,11.31438c0.21231,0.27412 0.44344,0.53481 0.69069,0.77938l7.8475,7.82062c2.73319,2.72513 7.01437,3.13094 10.2125,0.9675c9.97062,-6.79937 36.335,-22.62875 65.44063,-22.62875c29.10562,0 55.5775,15.82938 65.575,22.62875c1.33031,0.90569 2.90519,1.39212 4.515,1.3975c2.14731,0.00538 4.20594,-0.84656 5.72438,-2.365l7.71312,-7.71313c3.14975,-3.14975 3.14975,-8.25331 0,-11.40306c-0.301,-0.301 -0.6235,-0.57781 -0.9675,-0.82506zM165.81875,63.88188l-7.71312,7.71312c-0.903,0.90838 -2.31931,1.0535 -3.38625,0.34937c-10.37375,-7.095 -37.84,-23.56937 -68.71938,-23.56937c-30.87938,0 -58.07687,16.47437 -68.4775,23.5425c-1.06156,0.71219 -2.47787,0.57781 -3.38625,-0.3225l-7.8475,-7.82063c-1.06156,-1.03737 -1.08575,-2.73856 -0.04837,-3.80013c0.09137,-0.09406 0.18812,-0.18006 0.29025,-0.258c22.62875,-17.86381 50.63787,-27.54687 79.46938,-27.46625c37.14125,0 67.88625,19.26938 79.38875,27.57375c0.69338,0.43806 1.15025,1.17175 1.23625,1.98875c0.043,0.774 -0.25262,1.52919 -0.80625,2.06938zM86,21.5c1.4835,0 2.6875,-1.204 2.6875,-2.6875v-5.375c0,-1.4835 -1.204,-2.6875 -2.6875,-2.6875c-1.4835,0 -2.6875,1.204 -2.6875,2.6875v5.375c0,1.4835 1.204,2.6875 2.6875,2.6875zM71.24563,22.27938h0.29563c1.47544,-0.15587 2.54775,-1.47812 2.39187,-2.95356v-0.00269l-0.56437,-5.375c-0.15588,-1.4835 -1.48619,-2.56119 -2.96969,-2.40531c-1.4835,0.15588 -2.56119,1.48619 -2.40531,2.96969l0.56437,5.375c0.1505,1.36794 1.3115,2.39994 2.6875,2.39187zM53.88438,22.49438c0.27144,1.26044 1.3975,2.15269 2.6875,2.12313h0.56438c1.38675,-0.34669 2.26019,-1.71462 1.98875,-3.1175l-1.12875,-5.375c-0.31175,-1.4835 -1.76838,-2.43487 -3.25188,-2.12312c-1.4835,0.31175 -2.43487,1.76838 -2.12312,3.25188zM39.56,26.60625c0.51331,1.39213 2.05862,2.107 3.45075,1.59369c1.31956,-0.48644 2.0425,-1.90812 1.6555,-3.25994l-1.66625,-5.10625c-0.51331,-1.39212 -2.05862,-2.107 -3.45075,-1.59369c-1.31956,0.48644 -2.0425,1.90812 -1.6555,3.25994zM25.74625,32.25c0.43269,0.96213 1.38944,1.58294 2.44562,1.58563c0.37894,-0.00269 0.75519,-0.08331 1.10187,-0.24188c1.35719,-0.59931 1.97263,-2.18763 1.37331,-3.54481c0,0 0,-0.00269 -0.00269,-0.00269l-2.17687,-4.91813c-0.602,-1.35719 -2.19031,-1.97263 -3.5475,-1.37063c-1.35719,0.602 -1.97263,2.19031 -1.37063,3.5475v0zM12.5775,39.2375c0.688,1.31419 2.31125,1.82481 3.62812,1.13681c1.31687,-0.688 1.82481,-2.31125 1.13681,-3.62813c-0.03762,-0.06719 -0.07525,-0.13169 -0.11556,-0.19619l-2.6875,-4.64937c-0.688,-1.31419 -2.31125,-1.82481 -3.62812,-1.13681c-1.31687,0.688 -1.82481,2.31125 -1.13681,3.62813c0.03494,0.06719 0.07256,0.13169 0.11287,0.19619zM101.74875,19.64563c16.02556,1.70119 31.65069,6.07912 46.225,12.95375c0.36013,0.17469 0.75519,0.26606 1.15563,0.26875c1.4835,-0.00806 2.67944,-1.22013 2.67137,-2.70363c-0.00537,-1.02394 -0.59394,-1.9565 -1.51575,-2.40263c-15.11719,-7.12994 -31.32281,-11.67181 -47.945,-13.4375c-1.4835,-0.15587 -2.81381,0.92181 -2.96969,2.40531c-0.15587,1.4835 0.92181,2.81381 2.40531,2.96969zM160.09438,39.04938c2.33812,1.37062 4.64937,2.84875 6.90687,4.35375c1.23087,0.83044 2.90519,0.50525 3.73562,-0.72563c0.83044,-1.23087 0.50525,-2.90519 -0.72563,-3.73562c-2.33812,-1.58563 -4.75688,-3.09063 -7.14875,-4.515c-1.20131,-0.87344 -2.881,-0.60738 -3.75444,0.59394c-0.87344,1.20131 -0.60737,2.881 0.59394,3.75444c0.14781,0.1075 0.30638,0.19887 0.473,0.27681h-0.08062zM86,139.75c-4.45319,0 -8.0625,3.60931 -8.0625,8.0625c0,4.45319 3.60931,8.0625 8.0625,8.0625c4.45319,0 8.0625,-3.60931 8.0625,-8.0625v0c0,-4.45319 -3.60931,-8.0625 -8.0625,-8.0625zM86,151.52125c-2.04788,0 -3.70875,-1.66088 -3.70875,-3.70875c0,-2.04788 1.66087,-3.70875 3.70875,-3.70875c2.04788,0 3.70875,1.66088 3.70875,3.70875c0,2.04788 -1.66088,3.70875 -3.70875,3.70875z" fill="#8d6c9f"></path><g fill="#8d6c9f"><path d="M155.16819,0.77938c-1.04812,-1.04275 -2.74125,-1.04275 -3.78938,0l-134.40187,155.875c-1.12606,0.96481 -1.25775,2.66063 -0.29294,3.78938c0.96481,1.12875 2.66331,1.25775 3.78938,0.29294c0.10481,-0.08869 0.20425,-0.18812 0.29294,-0.29294l134.40187,-155.84813c1.0535,-1.04544 1.06156,-2.74662 0.01613,-3.80012c-0.00538,-0.00537 -0.01075,-0.01075 -0.01613,-0.01612z"></path></g></g></g></svg>